# xmcd
#
# Track frame offsets: 
#        150
#        10159
#        23084
#        35153
#        55582
#        68888
#        81647
#        95362
#        110272
#        125067
#        142298
#        161888
#        182604
#
# Disc length: 2700 seconds
#
# Revision: 0
# Processed by: cddbd v1.5.1PL2 Copyright (c) Steve Scherf et al.
# Submitted via: ExactAudioCopy v0.95a5
#
DISCID=b70a8a0d
DTITLE=Cowboys on Dope - Black Money
DYEAR=2006
DGENRE=Country
TTITLE0=Gunsmoke
TTITLE1=Roamin' round
TTITLE2=The wild call
TTITLE3=Nice guy
TTITLE4=Yesterday is here
TTITLE5=Teatime
TTITLE6=Lost in America
TTITLE7=How's the weather without you
TTITLE8=When I'm 64
TTITLE9=Lies of truth
TTITLE10=How does it feel
TTITLE11=The C.O.D. song
TTITLE12=Motorcycle boy
EXTD=
EXTT0=
EXTT1=
EXTT2=
EXTT3=
EXTT4=
EXTT5=
EXTT6=
EXTT7=
EXTT8=
EXTT9=
EXTT10=
EXTT11=
EXTT12=
PLAYORDER=
